<?xml version="1.0" encoding="UTF-8" standalone="no"?>
<!-- Created with Inkscape (http://www.inkscape.org/) -->

<svg
   width="96"
   height="120"
   viewBox="0 0 25.4 31.750001"
   version="1.1"
   id="svg291"
   inkscape:version="1.1 (c68e22c387, 2021-05-23)"
   sodipodi:docname="logo.svg"
   xmlns:inkscape="http://www.inkscape.org/namespaces/inkscape"
   xmlns:sodipodi="http://sodipodi.sourceforge.net/DTD/sodipodi-0.dtd"
   xmlns="http://www.w3.org/2000/svg"
   xmlns:svg="http://www.w3.org/2000/svg">
  <sodipodi:namedview
     id="namedview293"
     pagecolor="#ffffff"
     bordercolor="#666666"
     borderopacity="1.0"
     inkscape:pageshadow="2"
     inkscape:pageopacity="0.0"
     inkscape:pagecheckerboard="0"
     inkscape:document-units="px"
     showgrid="false"
     width="200px"
     units="px"
     borderlayer="true"
     inkscape:showpageshadow="false"
     inkscape:zoom="11.313708"
     inkscape:cx="55.507882"
     inkscape:cy="49.453281"
     inkscape:window-width="2560"
     inkscape:window-height="1377"
     inkscape:window-x="2552"
     inkscape:window-y="-8"
     inkscape:window-maximized="1"
     inkscape:current-layer="g14147"
     inkscape:snap-global="false" />
  <defs
     id="defs288" />
  <g
     inkscape:label="Layer 1"
     inkscape:groupmode="layer"
     id="layer1">
    <g
       id="g14147"
       transform="matrix(0.51472853,0,0,0.51472853,-0.51555466,0.06109443)"
       style="stroke-width:1.94278">
      <g
         id="g16193"
         transform="matrix(0.94684203,0,0,0.90220533,0.42235266,1.1696569)"
         style="stroke-width:2.10199">
        <path
           id="path15043"
           style="fill:#761b2e;fill-opacity:1;stroke-width:21.639;stroke-linecap:round;stroke-linejoin:round;paint-order:markers stroke fill"
           d="m 59.058594,-1.8066406 c -3.199238,0.037342 -5.89504,2.48043245 -6.185547,5.7382812 L 52.615234,6.8261719 H 43.650391 L 43.457031,4.09375 c -0.245482,-3.48018036 -3.24443,-6.0853248 -6.724609,-5.8398438 l -5.769531,0.4082032 C 27.48271,-1.0924092 24.87952,1.9065382 25.125,5.3867188 c -0.01365,1.3624305 0.02653,2.7428398 0,4 l 0.119141,1.6855472 c -1.710812,0.802865 -3.39613,1.702328 -5.035157,2.693359 L 16.826172,9.5292969 C 14.648456,6.8035916 10.700315,6.3632994 7.9746094,8.5410156 L 3.4570312,12.150391 c -2.1291151,1.701067 -2.48237932,4.043398 -2.4140624,6.978515 -0.032496,2.27049 0.035356,4.132742 1.4257812,5.873047 l 2.4707031,3.09375 c -2.679441,4.177506 -4.29687498,8.680606 -4.29687498,13.244141 v 4 20.824218 4 c 0,17.665888 22.85161588,32.477778 44.88867188,32.888668 l 6.703125,0.125 c 24.036708,0.44818 47.263672,-15.34778 47.263672,-33.013668 v -4 -20.824218 -4 c 0,-4.92493 -2.143077,-9.784386 -5.607422,-14.234375 l 2.15625,-2.646485 c 1.422026,-1.744156 1.504776,-3.287225 1.464844,-5.953125 -0.06457,-2.69365 -0.270342,-5.198264 -2.365235,-6.90625 L 90.664062,7.9433594 C 87.960058,5.7387575 84.007337,6.1416974 81.802734,8.8457031 l -4.05664,4.9746089 C 75.570332,12.612143 73.334347,11.533261 71.085938,10.605469 L 71.179688,9.5625 c 0.09185,-1.4277572 0.05747,-2.5457236 0,-4 0.309875,-3.4750386 -2.237852,-6.52215509 -5.712891,-6.8320312 l -5.761719,-0.5136719 c -0.21719,-0.019377 -0.433201,-0.025927 -0.646484,-0.023437 z"
           transform="matrix(0.51402501,0,0,0.51402501,1.001605,-0.11869253)"
           sodipodi:nodetypes="sccccccccccccccccsccssssccsccccccccccccs" />
        <path
           id="rect843"
           style="fill:#e9375c;stroke-width:11.123;stroke-linecap:round;stroke-linejoin:round;paint-order:markers stroke fill"
           d="m 22.73494,3.3902373 h 6.208969 c 9.080707,0 23.201999,8.6597767 23.201999,17.7404847 v 12.760936 c 0,9.080708 -11.938834,17.199818 -24.294303,16.969447 l -3.446084,-0.06425 C 13.077923,50.585646 1.3320272,42.972366 1.3320272,33.891658 V 21.130722 c 0,-9.080708 12.3222048,-17.7404847 21.4029128,-17.7404847 z"
           sodipodi:nodetypes="sssssssss" />
        <path
           style="fill:none;stroke:#ffffff;stroke-width:3.3369;stroke-linecap:round;stroke-linejoin:round;stroke-miterlimit:4;stroke-dasharray:none;stroke-opacity:1"
           d="m 3.3467835,34.658109 6.2078428,-0.04014 2.2575567,-1.560762 1.881151,2.97357 3.197954,-6.416437 3.38606,8.918716 3.511472,-14.321754 1.630318,18.308368 3.38644,-12.157154 2.507835,10.038531 2.571276,-12.520276 2.320436,8.556414 2.44513,-5.615051 1.504545,6.26626 2.696313,-2.443705 7.211254,0.01341"
           id="path4092"
           sodipodi:nodetypes="cccccccccccccccc" />
        <rect
           style="fill:#e9375c;fill-opacity:1;stroke:none;stroke-width:5.56151;stroke-linecap:butt;stroke-linejoin:round;stroke-miterlimit:4;stroke-dasharray:none;stroke-opacity:1;paint-order:markers stroke fill"
           id="rect6789"
           width="9.4470015"
           height="11.296763"
           x="13.69506"
           y="0.38572502"
           ry="3.2370842"
           transform="rotate(-4.0347884)" />
        <rect
           style="fill:#e9375c;fill-opacity:1;stroke:none;stroke-width:5.56151;stroke-linecap:butt;stroke-linejoin:round;stroke-miterlimit:4;stroke-dasharray:none;stroke-opacity:1;paint-order:markers stroke fill"
           id="rect6871"
           width="9.4470015"
           height="11.296763"
           x="28.237425"
           y="-3.8456492"
           ry="3.2370842"
           transform="rotate(5.0957)" />
        <rect
           style="fill:#e9375c;fill-opacity:1;stroke:none;stroke-width:5.56151;stroke-linecap:butt;stroke-linejoin:round;stroke-miterlimit:4;stroke-dasharray:none;stroke-opacity:1;paint-order:markers stroke fill"
           id="rect6909"
           width="9.4470015"
           height="11.296763"
           x="36.164204"
           y="-27.008657"
           ry="3.2370842"
           transform="rotate(39.190689)" />
        <rect
           style="fill:#e9375c;fill-opacity:1;stroke:none;stroke-width:5.56151;stroke-linecap:butt;stroke-linejoin:round;stroke-miterlimit:4;stroke-dasharray:none;stroke-opacity:1;paint-order:markers stroke fill"
           id="rect6911"
           width="9.4470015"
           height="11.296763"
           x="-4.5562296"
           y="6.5212903"
           ry="3.2370842"
           transform="matrix(-0.78126684,0.62419719,0.62419719,0.78126684,0,0)" />
        <path
           style="fill:none;fill-opacity:1;stroke:#761b2e;stroke-width:3.3369;stroke-linecap:round;stroke-linejoin:round;stroke-miterlimit:4;stroke-dasharray:none;stroke-opacity:1;paint-order:markers stroke fill"
           id="path7995"
           sodipodi:type="arc"
           sodipodi:cx="14.562063"
           sodipodi:cy="-18.146168"
           sodipodi:rx="4.3890481"
           sodipodi:ry="4.705596"
           sodipodi:start="0"
           sodipodi:end="3.1261167"
           sodipodi:arc-type="arc"
           d="m 18.951111,-18.146168 a 4.3890481,4.705596 0 0 1 -4.355086,4.705455 4.3890481,4.705596 0 0 1 -4.422484,-4.632634"
           transform="matrix(0.99996673,-0.00815703,-0.00990937,-0.9999509,0,0)"
           sodipodi:open="true" />
        <rect
           style="fill:#761b2e;fill-opacity:1;stroke:none;stroke-width:5.56151;stroke-linecap:round;stroke-linejoin:round;stroke-miterlimit:4;stroke-dasharray:none;stroke-opacity:1;paint-order:markers stroke fill"
           id="rect8019"
           width="3.1710212"
           height="6.4081054"
           x="24.872824"
           y="14.281698"
           ry="1.5855106" />
        <path
           style="fill:none;fill-opacity:1;stroke:#761b2e;stroke-width:3.3369;stroke-linecap:round;stroke-linejoin:round;stroke-miterlimit:4;stroke-dasharray:none;stroke-opacity:1;paint-order:markers stroke fill"
           id="path8743"
           sodipodi:type="arc"
           sodipodi:cx="37.867374"
           sodipodi:cy="-18.258215"
           sodipodi:rx="4.3890481"
           sodipodi:ry="4.705596"
           sodipodi:start="0"
           sodipodi:end="3.1261167"
           sodipodi:arc-type="arc"
           d="m 42.256423,-18.258215 a 4.3890481,4.705596 0 0 1 -4.355087,4.705455 4.3890481,4.705596 0 0 1 -4.422484,-4.632634"
           transform="matrix(0.99996673,-0.00815703,-0.00990937,-0.9999509,0,0)"
           sodipodi:open="true" />
      </g>
    </g>
  </g>
</svg>
